<svg fill="#30a452" xmlns="http://www.w3.org/2000/svg"  viewBox="0 0 24 24" width="192px" height="192px"><path d="M 4 3 A 2 2 0 0 0 3.6132812 3.0390625 C 3.6027047 3.0411798 3.5925496 3.0445889 3.5820312 3.046875 A 2 2 0 0 0 3.2324219 3.15625 C 3.227264 3.1584265 3.2219333 3.1598907 3.2167969 3.1621094 A 2 2 0 0 0 2 5 L 2 19 A 2 2 0 0 0 2.0390625 19.386719 C 2.0411798 19.397295 2.0445889 19.40745 2.046875 19.417969 A 2 2 0 0 0 2.15625 19.767578 C 2.1584265 19.772736 2.1598907 19.778067 2.1621094 19.783203 A 2 2 0 0 0 4 21 L 20 21 A 2 2 0 0 0 20.386719 20.960938 C 20.397295 20.95882 20.40745 20.955411 20.417969 20.953125 A 2 2 0 0 0 22 19 L 22 5 A 2 2 0 0 0 21.960938 4.6132812 C 21.95881 4.602689 21.955423 4.5925658 21.953125 4.5820312 A 2 2 0 0 0 20 3 L 4 3 z M 6 5 L 18 5 A 2 2 0 0 0 20 7 L 20 17 A 2 2 0 0 0 18 19 L 6 19 A 2 2 0 0 0 4 17 L 4 7 A 2 2 0 0 0 6 5 z M 11.714844 6 L 11.714844 7.0292969 C 11.375844 7.0722969 9.4765625 7.42875 9.4765625 9.71875 C 9.4765625 13.05975 12.935547 12.070781 12.935547 14.300781 C 12.935547 15.416781 12.215359 15.443359 12.068359 15.443359 C 11.940359 15.443359 11.136406 15.489 11.066406 14 L 9.171875 14 C 9.266875 16.702 11.267266 16.928703 11.572266 16.970703 L 11.572266 18 L 12.574219 18 L 12.574219 16.970703 C 12.913219 16.927703 14.824219 16.614109 14.824219 14.287109 C 14.824219 11.081109 11.365234 11.693563 11.365234 9.7265625 C 11.365234 8.5995625 11.987094 8.5644531 12.121094 8.5644531 C 12.356094 8.5644531 12.894453 8.775 12.939453 10 L 14.824219 10 C 14.749219 7.523 13.035656 7.1166406 12.722656 7.0566406 L 12.722656 6 L 11.714844 6 z M 6 11 L 6 13 L 8 13 L 8 11 L 6 11 z M 16 11 L 16 13 L 18 13 L 18 11 L 16 11 z"/></svg>