<svg fill="#30a452" xmlns="http://www.w3.org/2000/svg"  viewBox="0 0 48 48" width="144px" height="144px"><path d="M 13.5 6 C 9.3754991 6 6 9.3754991 6 13.5 L 6 34.5 C 6 38.624501 9.3754991 42 13.5 42 L 34.5 42 C 38.624501 42 42 38.624501 42 34.5 L 42 13.5 C 42 9.3754991 38.624501 6 34.5 6 L 13.5 6 z M 13.5 9 L 34.5 9 C 37.003499 9 39 10.996501 39 13.5 L 39 34.5 C 39 37.003499 37.003499 39 34.5 39 L 13.5 39 C 10.996501 39 9 37.003499 9 34.5 L 9 13.5 C 9 10.996501 10.996501 9 13.5 9 z M 20.96875 15 A 1.50015 1.50015 0 0 0 19.5625 16.068359 L 15.0625 31.068359 A 1.5009065 1.5009065 0 1 0 17.9375 31.931641 L 18.517578 30 L 23.482422 30 L 24.0625 31.931641 A 1.5009065 1.5009065 0 1 0 26.9375 31.068359 L 22.4375 16.068359 A 1.50015 1.50015 0 0 0 20.96875 15 z M 30.5 16.5 A 2 2 0 0 0 30.5 20.5 A 2 2 0 0 0 30.5 16.5 z M 21 21.722656 L 22.582031 27 L 19.417969 27 L 21 21.722656 z M 30.476562 21.978516 A 1.50015 1.50015 0 0 0 29 23.5 L 29 31.5 A 1.50015 1.50015 0 1 0 32 31.5 L 32 23.5 A 1.50015 1.50015 0 0 0 30.476562 21.978516 z"/></svg>