<?xml version="1.0" ?><svg data-name="Layer 1" id="Layer_1" viewBox="0 0 64 64" xmlns="http://www.w3.org/2000/svg"><title/><path d="M32,32A10,10,0,1,1,42,22,10,10,0,0,1,32,32Zm0-15.91a6,6,0,1,0,6,6A6,6,0,0,0,32,16.08Z"/><path d="M32,59.16a26.83,26.83,0,0,1-15.68-5,2,2,0,0,1-.83-1.42,7.13,7.13,0,0,1,0-.8,16.54,16.54,0,1,1,33.08,0,7.13,7.13,0,0,1,0,.8,2,2,0,0,1-.83,1.42A26.83,26.83,0,0,1,32,59.16Zm-12.53-7.7a23.07,23.07,0,0,0,25.06,0,12.54,12.54,0,0,0-25.06,0Zm27.05,1.07h0Z"/><path d="M32,59.16a26.83,26.83,0,0,1-15.68-5,27.15,27.15,0,1,1,34.22-42,2,2,0,0,1-2.74,2.92A23.15,23.15,0,1,0,18.63,50.89a23.07,23.07,0,0,0,26.73,0,23.17,23.17,0,0,0,8.18-27.4A2,2,0,1,1,57.26,22a27.16,27.16,0,0,1-9.59,32.13A26.83,26.83,0,0,1,32,59.16Z"/></svg>