<?xml version="1.0" encoding="UTF-8"?>
<svg id="Layer_1" data-name="Layer 1" xmlns="http://www.w3.org/2000/svg" xmlns:xlink="http://www.w3.org/1999/xlink" viewBox="0 0 760 665.5">
  <defs>
    <style>
      .cls-1 {
        fill: #c8a2ff;
      }

      .cls-2 {
        fill: #fff;
      }

      .cls-3 {
        opacity: .5;
      }

      .cls-4 {
        fill: #ac7ec8;
      }

      .cls-5 {
        stroke: url(#linear-gradient-5);
        stroke-dasharray: 0 0 4.8 4.8;
      }

      .cls-5, .cls-6, .cls-7, .cls-8, .cls-9, .cls-10, .cls-11 {
        fill: none;
      }

      .cls-5, .cls-6, .cls-7, .cls-8, .cls-9, .cls-11 {
        stroke-linejoin: round;
        stroke-width: 3.86px;
      }

      .cls-6 {
        stroke: url(#linear-gradient-3);
      }

      .cls-6, .cls-7 {
        stroke-dasharray: 0 0 4.78 4.78;
      }

      .cls-12 {
        fill: url(#linear-gradient-10);
      }

      .cls-7 {
        stroke: url(#linear-gradient-7);
      }

      .cls-13 {
        fill: #f8f3ff;
      }

      .cls-8 {
        stroke: url(#linear-gradient-6);
      }

      .cls-9 {
        stroke: url(#linear-gradient-4);
      }

      .cls-10 {
        stroke: #a594e7;
        stroke-miterlimit: 10;
      }

      .cls-14 {
        fill: url(#linear-gradient-9);
      }

      .cls-15 {
        fill: url(#linear-gradient);
      }

      .cls-11 {
        stroke: url(#linear-gradient-2);
      }

      .cls-16 {
        opacity: .25;
      }

      .cls-17 {
        fill: url(#linear-gradient-8);
      }
    </style>
    <linearGradient id="linear-gradient" x1="207.5" y1="230.13" x2="552.5" y2="230.13" gradientUnits="userSpaceOnUse">
      <stop offset="0" stop-color="#4427d7"/>
      <stop offset="1" stop-color="#6e30a7"/>
    </linearGradient>
    <linearGradient id="linear-gradient-2" x1="46.57" y1="195.62" x2="713.43" y2="195.62" gradientUnits="userSpaceOnUse">
      <stop offset="0" stop-color="#aa9aea"/>
      <stop offset="1" stop-color="#a594e8"/>
    </linearGradient>
    <linearGradient id="linear-gradient-3" y1="393.94" y2="393.94" xlink:href="#linear-gradient-2"/>
    <linearGradient id="linear-gradient-4" y1="590.42" y2="590.42" xlink:href="#linear-gradient-2"/>
    <linearGradient id="linear-gradient-5" y1="591" y2="591" xlink:href="#linear-gradient-2"/>
    <linearGradient id="linear-gradient-6" y1="590.42" y2="590.42" xlink:href="#linear-gradient-2"/>
    <linearGradient id="linear-gradient-7" y1="392.1" y2="392.1" xlink:href="#linear-gradient-2"/>
    <linearGradient id="linear-gradient-8" x1="258" y1="339.07" x2="503" y2="339.07" gradientUnits="userSpaceOnUse">
      <stop offset="0" stop-color="#d2ccff"/>
      <stop offset="1" stop-color="#c79fff"/>
    </linearGradient>
    <linearGradient id="linear-gradient-9" x1="253.5" y1="107.57" x2="498.5" y2="107.57" xlink:href="#linear-gradient"/>
    <linearGradient id="linear-gradient-10" x1="378.5" y1="461.11" x2="381.5" y2="461.11" gradientUnits="userSpaceOnUse">
      <stop offset=".13" stop-color="#c8a4ff"/>
      <stop offset=".98" stop-color="#c79fff"/>
    </linearGradient>
  </defs>
  <rect class="cls-2" width="760" height="665.5"/>
  <g class="cls-3">
    <path class="cls-15" d="M552.5,231.7h-5v-3.14h5v3.14Zm-10,0h-5v-3.14h5v3.14Zm-10,0h-5v-3.14h5v3.14Zm-10,0h-5v-3.14h5v3.14Zm-10,0h-5v-3.14h5v3.14Zm-10,0h-5v-3.14h5v3.14Zm-10,0h-5v-3.14h5v3.14Zm-10,0h-5v-3.14h5v3.14Zm-10,0h-5v-3.14h5v3.14Zm-10,0h-5v-3.14h5v3.14Zm-10,0h-5v-3.14h5v3.14Zm-10,0h-5v-3.14h5v3.14Zm-10,0h-5v-3.14h5v3.14Zm-10,0h-5v-3.14h5v3.14Zm-80,0h-5v-3.14h5v3.14Zm-10,0h-5v-3.14h5v3.14Zm-10,0h-5v-3.14h5v3.14Zm-10,0h-5v-3.14h5v3.14Zm-10,0h-5v-3.14h5v3.14Zm-10,0h-5v-3.14h5v3.14Zm-10,0h-5v-3.14h5v3.14Zm-10,0h-5v-3.14h5v3.14Zm-10,0h-5v-3.14h5v3.14Zm-10,0h-5v-3.14h5v3.14Zm-10,0h-5v-3.14h5v3.14Zm-10,0h-5v-3.14h5v3.14Zm-10,0h-5v-3.14h5v3.14Zm-10,0h-5v-3.14h5v3.14Z"/>
  </g>
  <g>
    <polygon class="cls-13" points="380 195.04 48.5 591 711.5 591 380 195.04"/>
    <g>
      <polyline class="cls-11" points="381.55 196.89 380 195.04 378.45 196.89"/>
      <line class="cls-6" x1="375.38" y1="200.55" x2="51.58" y2="587.32"/>
      <polyline class="cls-9" points="50.05 589.15 48.5 591 50.91 591"/>
      <line class="cls-5" x1="55.71" y1="591" x2="706.69" y2="591"/>
      <polyline class="cls-8" points="709.09 591 711.5 591 709.95 589.15"/>
      <line class="cls-7" x1="706.88" y1="585.49" x2="383.08" y2="198.72"/>
    </g>
  </g>
  <path class="cls-17" d="M503,340.64h-5v-3.14h5v3.14Zm-10,0h-5v-3.14h5v3.14Zm-10,0h-5v-3.14h5v3.14Zm-10,0h-5v-3.14h5v3.14Zm-10,0h-5v-3.14h5v3.14Zm-10,0h-5v-3.14h5v3.14Zm-10,0h-5v-3.14h5v3.14Zm-10,0h-5v-3.14h5v3.14Zm-10,0h-5v-3.14h5v3.14Zm-10,0h-5v-3.14h5v3.14Zm-10,0h-5v-3.14h5v3.14Zm-10,0h-5v-3.14h5v3.14Zm-10,0h-5v-3.14h5v3.14Zm-10,0h-5v-3.14h5v3.14Zm-10,0h-5v-3.14h5v3.14Zm-10,0h-5v-3.14h5v3.14Zm-10,0h-5v-3.14h5v3.14Zm-10,0h-5v-3.14h5v3.14Zm-10,0h-5v-3.14h5v3.14Zm-10,0h-5v-3.14h5v3.14Zm-10,0h-5v-3.14h5v3.14Zm-10,0h-5v-3.14h5v3.14Zm-10,0h-5v-3.14h5v3.14Zm-10,0h-5v-3.14h5v3.14Zm-10,0h-5v-3.14h5v3.14Z"/>
  <g class="cls-3">
    <path class="cls-14" d="M498.5,109.14h-5v-3.14h5v3.14Zm-10,0h-5v-3.14h5v3.14Zm-10,0h-5v-3.14h5v3.14Zm-10,0h-5v-3.14h5v3.14Zm-10,0h-5v-3.14h5v3.14Zm-10,0h-5v-3.14h5v3.14Zm-10,0h-5v-3.14h5v3.14Zm-10,0h-5v-3.14h5v3.14Zm-10,0h-5v-3.14h5v3.14Zm-10,0h-5v-3.14h5v3.14Zm-10,0h-5v-3.14h5v3.14Zm-10,0h-5v-3.14h5v3.14Zm-10,0h-5v-3.14h5v3.14Zm-10,0h-5v-3.14h5v3.14Zm-10,0h-5v-3.14h5v3.14Zm-10,0h-5v-3.14h5v3.14Zm-10,0h-5v-3.14h5v3.14Zm-10,0h-5v-3.14h5v3.14Zm-10,0h-5v-3.14h5v3.14Zm-10,0h-5v-3.14h5v3.14Zm-10,0h-5v-3.14h5v3.14Zm-10,0h-5v-3.14h5v3.14Zm-10,0h-5v-3.14h5v3.14Zm-10,0h-5v-3.14h5v3.14Zm-10,0h-5v-3.14h5v3.14Z"/>
  </g>
  <path class="cls-1" d="M603,471.06h-5v-3.14h5v3.14Zm-10,0h-5v-3.14h5v3.14Zm-10,0h-5v-3.14h5v3.14Zm-10,0h-5v-3.14h5v3.14Zm-10,0h-5v-3.14h5v3.14Zm-10,0h-5v-3.14h5v3.14Zm-10,0h-5v-3.14h5v3.14Zm-10,0h-5v-3.14h5v3.14Zm-10,0h-5v-3.14h5v3.14Zm-10,0h-5v-3.14h5v3.14Zm-10,0h-5v-3.14h5v3.14Zm-10,0h-5v-3.14h5v3.14Zm-10,0h-5v-3.14h5v3.14Zm-10,0h-5v-3.14h5v3.14Zm-10,0h-5v-3.14h5v3.14Zm-10,0h-5v-3.14h5v3.14Zm-10,0h-5v-3.14h5v3.14Zm-10,0h-5v-3.14h5v3.14Zm-10,0h-5v-3.14h5v3.14Zm-10,0h-5v-3.14h5v3.14Zm-10,0h-5v-3.14h5v3.14Zm-10,0h-5v-3.14h5v3.14Zm-10,0h-5v-3.14h5v3.14Zm-10,0h-5v-3.14h5v3.14Zm-10,0h-5v-3.14h5v3.14Zm-10,0h-5v-3.14h5v3.14Zm-10,0h-5v-3.14h5v3.14Zm-10,0h-5v-3.14h5v3.14Zm-10,0h-5v-3.14h5v3.14Zm-10,0h-5v-3.14h5v3.14Zm-10,0h-5v-3.14h5v3.14Zm-10,0h-5v-3.14h5v3.14Zm-10,0h-5v-3.14h5v3.14Zm-10,0h-5v-3.14h5v3.14Zm-10,0h-5v-3.14h5v3.14Zm-10,0h-5v-3.14h5v3.14Zm-10,0h-5v-3.14h5v3.14Zm-10,0h-5v-3.14h5v3.14Zm-10,0h-5v-3.14h5v3.14Zm-10,0h-5v-3.14h5v3.14Zm-10,0h-5v-3.14h5v3.14Zm-10,0h-5v-3.14h5v3.14Zm-10,0h-5v-3.14h5v3.14Zm-10,0h-5v-3.14h5v3.14Zm-10,0h-5v-3.14h5v3.14Z"/>
  <path class="cls-12" d="M381.5,584.19h-3v-5.24h3v5.24Zm0-10.48h-3v-5.24h3v5.24Zm0-10.48h-3v-5.24h3v5.24Zm0-10.48h-3v-5.24h3v5.24Zm0-10.48h-3v-5.24h3v5.24Zm0-10.48h-3v-5.24h3v5.24Zm0-10.48h-3v-5.24h3v5.24Zm0-10.48h-3v-5.24h3v5.24Zm0-10.48h-3v-5.24h3v5.24Zm0-10.48h-3v-5.24h3v5.24Zm0-10.48h-3v-5.24h3v5.24Zm0-10.48h-3v-5.24h3v5.24Zm0-10.48h-3v-5.24h3v5.24Zm0-10.48h-3v-5.24h3v5.24Zm0-10.48h-3v-5.24h3v5.24Zm0-10.48h-3v-5.24h3v5.24Zm0-10.48h-3v-5.24h3v5.24Zm0-10.48h-3v-5.24h3v5.24Zm0-10.48h-3v-5.24h3v5.24Zm0-10.48h-3v-5.24h3v5.24Zm0-10.48h-3v-5.24h3v5.24Zm0-10.48h-3v-5.24h3v5.24Zm0-10.48h-3v-5.24h3v5.24Zm0-10.48h-3v-5.24h3v5.24Z"/>
  <g class="cls-16">
    <rect class="cls-10" x="350" y="262.5" width="60" height="60"/>
    <rect class="cls-10" x="292" y="379.5" width="60" height="60"/>
    <rect class="cls-10" x="408" y="379.5" width="60" height="60"/>
    <rect class="cls-10" x="292" y="499.5" width="60" height="60"/>
    <rect class="cls-10" x="176" y="499.5" width="60" height="60"/>
    <rect class="cls-10" x="407" y="499.5" width="60" height="60"/>
    <rect class="cls-10" x="522" y="499.5" width="60" height="60"/>
  </g>
  <rect class="cls-13" x="406.5" y="139" width="60" height="60"/>
  <rect class="cls-13" x="292.5" y="139" width="60" height="60"/>
  <rect class="cls-13" x="348.5" y="22" width="60" height="60"/>
  <polygon class="cls-4" points="379.73 196.05 260.01 339.06 500.5 339.06 379.73 196.05"/>
</svg>